<svg width="48" height="64" viewBox="0 0 48 64" fill="none" xmlns="http://www.w3.org/2000/svg">
<path d="M47.4132 20.5837C47.4132 20.1869 47.0164 19.7901 46.4597 19.6314L39.788 17.1724C38.6769 16.6963 37.4061 17.2518 37.4061 18.0465V45.9999C37.4061 46.3967 37.8029 46.8728 38.1997 47.0316L45.0302 49.4906C46.0629 49.8874 47.4132 49.3319 47.4132 48.4578V20.5837ZM34.9437 10.8159C34.9437 10.4179 34.5469 10.0211 33.9903 9.86243L27.3197 7.40342C26.2075 6.92726 24.9367 7.48278 24.9367 8.27748V25.2704C24.9367 25.6672 25.3334 26.1433 25.7302 26.3032L32.5607 28.7622C33.5935 29.1601 34.9437 28.6035 34.9437 27.7305V10.8159ZM34.9437 41.3926C34.9437 40.9958 34.5469 40.599 33.9903 40.4403L27.3197 37.9813C26.2075 37.5051 24.9367 38.0606 24.9367 38.8553V55.8482C24.9367 56.245 25.3334 56.7212 25.7302 56.8799L32.5607 59.3389C33.5935 59.7368 34.9437 59.1802 34.9437 58.3061V41.3926ZM22.4743 44.8084C22.4743 44.4116 22.0775 44.0137 21.5209 43.855L14.8502 41.3959C13.7325 40.9198 12.4672 41.4753 12.4672 42.27V60.3773C12.4672 60.7741 12.864 61.2514 13.2608 61.4101L20.0913 63.8691C21.1241 64.267 22.4743 63.7104 22.4743 62.8374V44.8084ZM22.4743 3.58747C22.4743 3.19068 22.0775 2.79388 21.5209 2.63516L14.8502 0.176148C13.7325 -0.300007 12.4672 0.255506 12.4672 1.05022V19.1575C12.4672 19.5554 12.864 20.0316 13.2608 20.1903L20.0913 22.6493C21.1241 23.0461 22.4743 22.4906 22.4743 21.6165V3.58747ZM10.0071 4.30282C10.0071 3.90603 9.61028 3.50811 9.05365 3.3494L2.38301 0.89038C1.27086 0.414225 0 0.96974 0 1.76445V59.7402C0 60.137 0.396801 60.6131 0.794714 60.7719L7.62407 63.2309C8.65685 63.6277 10.0071 63.0722 10.0071 62.1981V4.30282Z" fill="black"/>
</svg>
